<svg id="Layer_1" fill='url(#g1)' enable-background="new 0 0 512.01 512.01" height="512" viewBox="0 0 512.01 512.01" width="512" xmlns="http://www.w3.org/2000/svg">

<defs>
<linearGradient id='g1' gradientUnits='userSpaceOnUse' x1='-3.14%' y1='46.41%' x2='103.14%' y2='53.59%'>
<stop stop-color='#EAB25E'/>
<stop offset='.408' stop-color='#F4E2C7'/>
<stop offset='.832' stop-color='#EAB25E'/>
</linearGradient>
</defs>

<path d="m477.859 304.555c-13.961-16.759-31.546-30.431-51.23-40.113 30.029-21.875 49.587-57.299 49.587-97.211.307-105.191-128.304-159.943-203.564-86.481-10.843-1.537-22.459-1.536-33.302.002-75.527-73.31-203.742-18.812-203.544 86.482-.001 39.914 19.56 75.341 49.594 97.215-50.534 24.24-86.092 77.334-85.39 133.378v19.635c.793 19.902 29.215 19.887 30 0v-19.635c0-51.724 36.387-98.724 88.486-114.297 1.014-.303 1.97-.706 2.864-1.191 16.047 4.908 34.254 6.376 51.252 3.941 4.005 3.864 8.278 7.451 12.787 10.734-50.534 24.24-86.092 77.334-85.39 133.378v19.635c.793 19.902 29.215 19.887 30 0v-19.635c0-47.236 30.356-90.518 75.304-109.537v.219c2.793 67.271 98.625 67.219 101.393 0v-.235c44.987 19.01 75.304 62.205 75.304 109.552v19.635c.793 19.902 29.215 19.887 30 0v-19.635c.709-56.028-34.86-109.144-85.368-133.394 4.505-3.282 8.774-6.868 12.776-10.729 16.762 2.415 34.717 1.017 50.581-3.734 54.377 14.532 92.011 61.397 92.011 115.291v19.635c.793 19.902 29.215 19.887 30 0v-19.635c0-33.71-12.129-66.834-34.151-93.27zm-121.849-227.528c116.339 4.273 120.943 169.056 5.557 180.234 33.701-59.474 6.55-138.536-54.048-166.059 14.348-9.232 31.008-14.175 48.491-14.175zm-100 212.976c-89.722-.764-123.33-116.433-49.701-165.444 21.923 54.017 83.223 85.165 139.779 70.438 2.884 51.327-38.655 95.167-90.078 95.006zm83.518-124.278c-42.773 11.521-89.689-12.66-105.8-53.345 43.117-11.732 90.312 13.332 105.8 53.345zm-273.723 1.507c-.608-70.394 79.752-114.49 138.608-75.988-60.555 27.563-87.633 106.592-53.959 166.017-47.161-2.88-84.649-42.156-84.649-90.029zm190.205 174.538c-11.412 0-20.696-9.284-20.696-20.695v-2.861c13.382 2.376 28.011 2.376 41.393 0v2.861c0 11.411-9.285 20.695-20.697 20.695z"/></svg>