<svg id="Layer_1" enable-background="new 0 0 512 512" height="512" viewBox="0 0 512 512" width="512" xmlns="http://www.w3.org/2000/svg"><g><path d="m241 87.419v27.081c.793 19.902 29.215 19.887 30 0v-27.081c46.977-17.384 35.719-86.462-15.001-87.419-50.727.962-61.969 70.044-14.999 87.419zm15-57.419c8.271 0 15 6.729 15 15-.823 19.899-29.18 19.893-30 0 0-8.271 6.729-15 15-15z"/><path d="m291.088 234.129c23.547-28.845 2.474-73.304-35.088-73.129-37.56-.176-58.636 44.291-35.087 73.129-13.325 10.443-21.911 26.667-21.911 44.87v35c0 8.284 6.716 15 15 15h83.998c8.284 0 15-6.716 15-15v-35c0-18.202-8.587-34.427-21.912-44.87zm-35.088-43.129c8.271 0 15 6.729 15 15-.823 19.899-29.18 19.893-30 0 0-8.271 6.729-15 15-15zm27 108h-53.999v-20c1.487-35.828 52.525-35.799 53.999 0z"/><path d="m271 424.58v-27.08c-.793-19.902-29.215-19.887-30 0v27.08c-46.977 17.384-35.719 86.462 15.001 87.42 50.727-.962 61.969-70.045 14.999-87.42zm-15 57.42c-8.271 0-15-6.729-15-15 .824-19.9 29.179-19.894 30 0 0 8.271-6.729 15-15 15z"/><path d="m467 211c-19.555 0-36.228 12.541-42.42 30h-27.08c-19.902.793-19.887 29.215 0 30h27.08c17.391 46.983 86.462 35.713 87.42-15.001 0-24.812-20.187-44.999-45-44.999zm0 60c-8.271 0-15-6.729-15-15 .823-19.899 29.18-19.893 30 0 0 8.271-6.729 15-15 15z"/><path d="m87.42 271h27.08c19.902-.793 19.887-29.215 0-30h-27.08c-17.384-46.976-86.463-35.719-87.42 15.001.962 50.727 70.045 61.969 87.42 14.999zm-42.42 0c-8.271 0-15-6.729-15-15 .823-19.899 29.18-19.893 30 0 0 8.271-6.729 15-15 15z"/><path d="m356.056 170.945c3.839 0 7.678-1.464 10.606-4.394l19.148-19.148c17.012 8.063 37.477 4.915 51.209-8.782 17.546-17.545 17.546-46.094 0-63.64-17.546-17.545-46.096-17.544-63.64 0-13.828 13.827-16.749 34.485-8.782 51.209l-19.148 19.149c-5.858 5.858-5.858 15.355 0 21.213 2.929 2.928 6.768 4.393 10.607 4.393zm38.537-74.751c5.848-5.849 15.366-5.849 21.214 0 13.488 14.653-6.564 34.701-21.214 21.214-5.849-5.849-5.849-15.366 0-21.214z"/><path d="m145.338 345.45-19.148 19.149c-16.724-7.967-37.383-5.045-51.209 8.782-17.545 17.545-17.546 46.094 0 63.64 17.545 17.545 46.095 17.544 63.64 0 13.827-13.827 16.748-34.485 8.782-51.208l19.149-19.149c5.858-5.858 5.857-15.355 0-21.213-5.859-5.86-15.357-5.86-21.214-.001zm-27.931 70.357c-5.846 5.849-15.364 5.85-21.214 0-5.849-5.849-5.849-15.365 0-21.214 14.663-13.489 34.698 6.572 21.214 21.214z"/><path d="m405.199 360.2c-6.829 0-13.425 1.515-19.408 4.379l-19.129-19.13c-5.856-5.858-15.354-5.857-21.213 0-5.857 5.858-5.858 15.355 0 21.213l19.129 19.13c-8.198 16.685-4.611 38.207 8.801 51.227 17.545 17.546 46.095 17.545 63.64 0 17.457-16.749 17.458-46.89 0-63.639-8.499-8.499-19.799-13.18-31.82-13.18zm10.608 55.607c-5.85 5.85-15.364 5.849-21.214 0-5.819-5.584-5.819-15.629 0-21.213 5.586-5.819 15.629-5.819 21.214.001 5.819 5.582 5.819 15.628 0 21.212z"/><path d="m147.402 126.189c7.967-16.724 5.045-37.381-8.782-51.208-17.546-17.546-46.096-17.545-63.64 0-17.546 17.545-17.546 46.094 0 63.639 13.732 13.697 34.198 16.845 51.209 8.782l19.148 19.148c5.857 5.858 15.356 5.858 21.213 0 5.858-5.858 5.858-15.355 0-21.213zm-40.601-4.388c-13.218.11-20.017-16.32-10.607-25.607 5.85-5.849 15.365-5.848 21.214 0 9.412 9.292 2.605 25.716-10.607 25.607z"/></g></svg>