<svg id="Layer_1" fill='url(#g1)' enable-background="new 0 0 511.918 511.918" height="512" viewBox="0 0 511.918 511.918" width="512" xmlns="http://www.w3.org/2000/svg">

<defs>
<linearGradient id='g1' gradientUnits='userSpaceOnUse' x1='-3.14%' y1='46.41%' x2='103.14%' y2='53.59%'>
<stop stop-color='#EAB25E'/>
<stop offset='.408' stop-color='#F4E2C7'/>
<stop offset='.832' stop-color='#EAB25E'/>
</linearGradient>
</defs>

<g><path d="m454.99 305.004v-65.488c0-8.284-6.716-15-15-15h-50.606l3.003-2.919c4.436-4.312 5.77-10.904 3.359-16.601l-8.758-20.698c-2.411-5.697-8.096-9.336-14.255-9.148l-19.034.56.271-19.04c.088-6.185-3.63-11.79-9.362-14.114l-20.829-8.444c-5.738-2.325-12.306-.889-16.55 3.611l-13.062 13.854-13.272-13.654c-4.311-4.436-10.903-5.77-16.601-3.36l-20.699 8.757c-5.697 2.411-9.331 8.071-9.149 14.255l.56 19.035-19.04-.271c-6.2-.079-11.79 3.63-14.114 9.363l-8.444 20.829c-2.324 5.733-.891 12.305 3.61 16.549l1.523 1.437h-8.458l-113.156-216.465c-2.199-4.207-6.26-7.125-10.949-7.867-4.69-.743-9.452.779-12.842 4.101-95.152 95.323-27.223 255.541 107.617 252.818v239.894c.793 19.902 29.215 19.887 30 0v-242.482h234.237v53.2c0 1.794.322 3.573.95 5.253l22.783 60.937h-8.734c-6.044 0-11.497 3.628-13.833 9.202l-19.298 46.048c-4.3 10.261-8.361 19.953-10.952 21.584-2.773 1.748-13.175 1.737-26.339 1.716l-39.324-.004c-8.284 0-15 6.716-15 15v29.543c.793 19.902 29.215 19.887 30 0v-14.543l24.284.004c20.784.032 32.249.043 42.372-6.334 10.604-6.682 15.13-17.481 22.627-35.371l15.441-36.846 20.379-.001c10.259.177 17.809-10.708 14.049-20.253zm-229.925-96.712.734-1.811 20.46.291c4.318.053 8.421-1.727 11.314-4.911.959-1.056 1.963-2.071 2.981-3.019 3.166-2.942 4.908-7.107 4.781-11.427l-.602-20.465 1.8-.761 14.271 14.682c3.014 3.102 7.222 4.751 11.539 4.525 1.379-.072 2.803-.085 4.235-.038 4.286.123 8.451-1.572 11.402-4.702l14.036-14.887 1.811.734-.286 20.185c-.062 4.361 1.777 8.533 5.038 11.43 1.14 1.012 2.242 2.084 3.276 3.185 2.94 3.133 7.122 4.841 11.377 4.728l20.126-.592.761 1.799s-16.118 16-16.825 17.279h-105.506c-.59-.854-16.723-16.225-16.723-16.225zm-173.034-44.063c-20.534-39.28-16.566-87.102 8.577-122.639l97.019 185.595c-43.579.355-85.064-23.677-105.596-62.956z"/><path d="m488.262 80.001h-5.934c-1.236-4.451-3.007-8.678-5.241-12.613l4.207-4.207c5.858-5.858 5.857-15.355 0-21.213-5.857-5.857-15.355-5.857-21.213 0l-4.207 4.207c-3.935-2.234-8.162-4.004-12.613-5.241v-5.933c-.793-19.902-29.215-19.887-30 0v5.933c-4.45 1.236-8.678 3.007-12.613 5.241l-4.207-4.207c-5.856-5.857-15.354-5.858-21.213 0-5.857 5.858-5.858 15.355 0 21.213l4.207 4.207c-2.234 3.935-4.004 8.162-5.241 12.613h-5.934c-19.902.793-19.887 29.215 0 30h5.934c1.236 4.45 3.007 8.678 5.241 12.612l-4.207 4.207c-5.858 5.858-5.857 15.355 0 21.213 5.858 5.858 15.355 5.857 21.213 0l4.207-4.207c3.935 2.234 8.162 4.004 12.613 5.241v5.933c.793 19.902 29.215 19.887 30 0v-5.933c4.45-1.236 8.678-3.007 12.613-5.241l4.207 4.207c5.857 5.858 15.355 5.857 21.213 0 5.857-5.858 5.858-15.355 0-21.213l-4.207-4.207c2.234-3.935 4.004-8.162 5.241-12.612h5.934c19.902-.793 19.887-29.215 0-30zm-60 41.118c-14.401 0-26.118-11.717-26.118-26.118 1.435-34.65 50.807-34.64 52.236 0 0 14.401-11.717 26.118-26.118 26.118z"/></g></svg>