<svg width="45" height="54" viewBox="0 0 45 54" fill="none" xmlns="http://www.w3.org/2000/svg">
<path d="M17.49 33.24H16.49V34.24H17.49V33.24ZM18.96 27.78L19.7879 28.3408L19.792 28.3348L19.796 28.3287L18.96 27.78ZM23.16 22.95L23.8483 23.6755L23.8525 23.6714L23.16 22.95ZM25.68 20.22L24.8991 19.5953L24.886 19.6117L24.8736 19.6286L25.68 20.22ZM25.19 15.6L24.6253 16.4253L24.6405 16.4357L24.656 16.4455L25.19 15.6ZM17.63 16.02L18.1708 16.8612L18.1812 16.8545L18.1915 16.8475L17.63 16.02ZM14.55 19.45L14.1028 20.3444L14.9858 20.7859L15.4386 19.9086L14.55 19.45ZM2.09 13.22L1.20508 12.7543L0.729531 13.6578L1.64279 14.1144L2.09 13.22ZM10.35 4.89L9.87192 4.01166L9.86722 4.01426L10.35 4.89ZM37.79 5.38L37.2404 6.21542V6.21542L37.79 5.38ZM42.06 20.43L41.1545 20.0056L41.1515 20.012L41.1486 20.0184L42.06 20.43ZM39.68 24.14L40.4041 24.8297L40.4121 24.8213L40.4199 24.8127L39.68 24.14ZM36.11 27.43L35.4674 26.6638L35.4594 26.6705L35.4515 26.6774L36.11 27.43ZM32.89 30.58L32.1181 29.9443V29.9443L32.89 30.58ZM31.91 33.24V34.24H32.91V33.24H31.91ZM18.05 50.25L17.3628 50.9765L18.05 50.25ZM18.05 38.42L18.7156 39.1663L18.7212 39.1614L18.7266 39.1563L18.05 38.42ZM31.35 38.42L30.6734 39.1563L30.6788 39.1614L30.6844 39.1663L31.35 38.42ZM31.35 50.25L32.0372 50.9765L31.35 50.25ZM18.49 33.24C18.49 31.1955 18.9457 29.5842 19.7879 28.3408L18.1321 27.2192C17.0143 28.8692 16.49 30.8979 16.49 33.24H18.49ZM19.796 28.3287C20.7206 26.9198 22.0636 25.3686 23.8483 23.6755L22.4717 22.2245C20.6164 23.9847 19.1594 25.6535 18.124 27.2313L19.796 28.3287ZM23.8525 23.6714C25.0318 22.5393 25.9214 21.5819 26.4864 20.8114L24.8736 19.6286C24.412 20.2581 23.6215 21.1207 22.4675 22.2286L23.8525 23.6714ZM26.4609 20.8447C27.1433 19.9917 27.52 19.0297 27.52 17.98H25.52C25.52 18.5169 25.3367 19.0483 24.8991 19.5953L26.4609 20.8447ZM27.52 17.98C27.52 16.6014 26.8932 15.4929 25.724 14.7545L24.656 16.4455C25.2602 16.8271 25.52 17.3053 25.52 17.98H27.52ZM25.7547 14.7747C24.6631 14.0278 23.3324 13.69 21.83 13.69V15.69C23.0342 15.69 23.9435 15.9588 24.6253 16.4253L25.7547 14.7747ZM21.83 13.69C20.1247 13.69 18.5308 14.2002 17.0685 15.1925L18.1915 16.8475C19.3425 16.0664 20.5487 15.69 21.83 15.69V13.69ZM17.0892 15.1788C15.6279 16.1183 14.4844 17.3967 13.6614 18.9914L15.4386 19.9086C16.1089 18.61 17.0188 17.6017 18.1708 16.8612L17.0892 15.1788ZM14.9972 18.5556L2.53721 12.3256L1.64279 14.1144L14.1028 20.3444L14.9972 18.5556ZM2.97492 13.6857C4.747 10.3188 7.35732 7.6817 10.8328 5.76574L9.86722 4.01426C6.06268 6.11163 3.16633 9.02788 1.20508 12.7543L2.97492 13.6857ZM10.8281 5.76832C14.3328 3.86071 18.6849 2.88 23.93 2.88V0.879998C18.4417 0.879998 13.7406 1.90596 9.87193 4.01168L10.8281 5.76832ZM23.93 2.88C29.4931 2.88 33.9039 4.02036 37.2404 6.21542L38.3396 4.54458C34.5828 2.07297 29.7536 0.879998 23.93 0.879998V2.88ZM37.2404 6.21542C40.5058 8.36373 42.11 11.3397 42.11 15.25H44.11C44.11 10.6669 42.1675 7.06293 38.3396 4.54458L37.2404 6.21542ZM42.11 15.25C42.11 17.0906 41.7816 18.6678 41.1545 20.0056L42.9655 20.8544C43.7384 19.2056 44.11 17.3294 44.11 15.25H42.11ZM41.1486 20.0184C40.5323 21.3831 39.7936 22.5284 38.9401 23.4673L40.4199 24.8127C41.4331 23.6982 42.281 22.3702 42.9714 20.8416L41.1486 20.0184ZM38.9559 23.4503C38.0561 24.3951 36.8957 25.4659 35.4674 26.6638L36.7526 28.1962C38.2176 26.9675 39.4373 25.8449 40.4041 24.8297L38.9559 23.4503ZM35.4515 26.6774C33.9475 27.9934 32.8245 29.0864 32.1181 29.9443L33.6619 31.2157C34.2621 30.4869 35.2858 29.4799 36.7685 28.1826L35.4515 26.6774ZM32.1181 29.9443C31.3251 30.9072 30.91 32.0161 30.91 33.24H32.91C32.91 32.5039 33.1483 31.8394 33.6619 31.2157L32.1181 29.9443ZM31.91 32.24H17.49V34.24H31.91V32.24ZM24.7 51.7C22.2107 51.7 20.2521 50.9566 18.7372 49.5235L17.3628 50.9765C19.3012 52.8101 21.776 53.7 24.7 53.7V51.7ZM18.7372 49.5235C17.206 48.0751 16.46 46.3527 16.46 44.3H14.46C14.46 46.9139 15.4407 49.1582 17.3628 50.9765L18.7372 49.5235ZM16.46 44.3C16.46 42.1957 17.2085 40.5104 18.7156 39.1663L17.3844 37.6737C15.4381 39.4096 14.46 41.6443 14.46 44.3H16.46ZM18.7266 39.1563C20.2404 37.7653 22.2026 37.04 24.7 37.04V35.04C21.7841 35.04 19.3129 35.9014 17.3734 37.6837L18.7266 39.1563ZM24.7 37.04C27.1974 37.04 29.1596 37.7653 30.6734 39.1563L32.0266 37.6837C30.0871 35.9014 27.6159 35.04 24.7 35.04V37.04ZM30.6844 39.1663C32.1915 40.5104 32.94 42.1957 32.94 44.3H34.94C34.94 41.6443 33.9619 39.4096 32.0156 37.6737L30.6844 39.1663ZM32.94 44.3C32.94 46.3527 32.194 48.0751 30.6628 49.5235L32.0372 50.9765C33.9593 49.1582 34.94 46.9139 34.94 44.3H32.94ZM30.6628 49.5235C29.1479 50.9566 27.1893 51.7 24.7 51.7V53.7C27.624 53.7 30.0988 52.8101 32.0372 50.9765L30.6628 49.5235Z" fill="url(#paint0_linear)"/>
<defs>
<linearGradient id="paint0_linear" x1="1.65957" y1="7.61364" x2="40.316" y2="10.0538" gradientUnits="userSpaceOnUse">
<stop stop-color="#EAB25E"/>
<stop offset="0.509554" stop-color="#F4E2C7"/>
<stop offset="1" stop-color="#EAB25E"/>
</linearGradient>
</defs>
</svg>
