<svg width="55" height="38" viewBox="0 0 55 38" fill="none" xmlns="http://www.w3.org/2000/svg">
<path d="M18.52 16.16L16.6022 15.5926L16.1205 17.2208L17.6489 17.9603L18.52 16.16ZM22.36 19.68L20.6346 20.6914L20.6424 20.7048L20.6504 20.718L22.36 19.68ZM5.56 32.48L6.9344 31.0271L6.9344 31.0271L5.56 32.48ZM3.16 20.88L5.09123 21.3999L5.09123 21.3999L3.16 20.88ZM5.72 14.56L7.52887 15.4132L7.53019 15.4104L5.72 14.56ZM11.32 2.64V0.639997H10.0499L9.50981 1.78957L11.32 2.64ZM22.52 2.64L24.4378 3.2074L25.1974 0.639997H22.52V2.64ZM17.6489 17.9603C18.9549 18.5923 19.9334 19.4953 20.6346 20.6914L24.0854 18.6686C22.9732 16.7713 21.3918 15.3277 19.3911 14.3597L17.6489 17.9603ZM20.6504 20.718C21.3337 21.8433 21.72 23.2557 21.72 25.04H25.72C25.72 22.6643 25.1997 20.5034 24.0696 18.642L20.6504 20.718ZM21.72 25.04C21.72 27.6673 20.9026 29.5921 19.3856 31.0271L22.1344 33.9329C24.5641 31.6346 25.72 28.5993 25.72 25.04H21.72ZM19.3856 31.0271C17.8357 32.4931 15.8186 33.28 13.16 33.28V37.28C16.688 37.28 19.7376 36.2002 22.1344 33.9329L19.3856 31.0271ZM13.16 33.28C10.5014 33.28 8.48426 32.4931 6.9344 31.0271L4.1856 33.9329C6.58241 36.2002 9.63197 37.28 13.16 37.28V33.28ZM6.9344 31.0271C5.41741 29.5921 4.6 27.6673 4.6 25.04H0.6C0.6 28.5993 1.75592 31.6346 4.1856 33.9329L6.9344 31.0271ZM4.6 25.04C4.6 23.8351 4.76191 22.6231 5.09123 21.3999L1.22877 20.3601C0.81142 21.9102 0.6 23.4716 0.6 25.04H4.6ZM5.09123 21.3999C5.41503 20.1973 6.20147 18.2273 7.52886 15.4132L3.91114 13.7068C2.57186 16.546 1.65164 18.7894 1.22877 20.3601L5.09123 21.3999ZM7.53019 15.4104L13.1302 3.49042L9.50981 1.78957L3.90981 13.7096L7.53019 15.4104ZM11.32 4.64H22.52V0.639997H11.32V4.64ZM20.6022 2.07259L16.6022 15.5926L20.4378 16.7274L24.4378 3.2074L20.6022 2.07259ZM47.62 16.16L45.7022 15.5926L45.2205 17.2208L46.7489 17.9603L47.62 16.16ZM51.46 19.68L49.7346 20.6914L49.7424 20.7048L49.7504 20.718L51.46 19.68ZM34.66 32.48L36.0344 31.0271L36.0344 31.0271L34.66 32.48ZM32.26 20.88L34.1912 21.3999L34.1912 21.3999L32.26 20.88ZM34.82 14.56L36.6289 15.4132L36.6302 15.4104L34.82 14.56ZM40.42 2.64V0.639997H39.1499L38.6098 1.78957L40.42 2.64ZM51.62 2.64L53.5378 3.2074L54.2974 0.639997H51.62V2.64ZM46.7489 17.9603C48.0549 18.5923 49.0334 19.4953 49.7346 20.6914L53.1854 18.6686C52.0732 16.7713 50.4918 15.3277 48.4911 14.3597L46.7489 17.9603ZM49.7504 20.718C50.4337 21.8433 50.82 23.2557 50.82 25.04H54.82C54.82 22.6643 54.2997 20.5034 53.1696 18.642L49.7504 20.718ZM50.82 25.04C50.82 27.6673 50.0026 29.5921 48.4856 31.0271L51.2344 33.9329C53.6641 31.6346 54.82 28.5993 54.82 25.04H50.82ZM48.4856 31.0271C46.9357 32.4931 44.9186 33.28 42.26 33.28V37.28C45.788 37.28 48.8376 36.2002 51.2344 33.9329L48.4856 31.0271ZM42.26 33.28C39.6014 33.28 37.5843 32.4931 36.0344 31.0271L33.2856 33.9329C35.6824 36.2002 38.732 37.28 42.26 37.28V33.28ZM36.0344 31.0271C34.5174 29.5921 33.7 27.6673 33.7 25.04H29.7C29.7 28.5993 30.8559 31.6346 33.2856 33.9329L36.0344 31.0271ZM33.7 25.04C33.7 23.8351 33.8619 22.6231 34.1912 21.3999L30.3288 20.3601C29.9114 21.9102 29.7 23.4716 29.7 25.04H33.7ZM34.1912 21.3999C34.515 20.1973 35.3015 18.2273 36.6289 15.4132L33.0111 13.7068C31.6719 16.546 30.7516 18.7894 30.3288 20.3601L34.1912 21.3999ZM36.6302 15.4104L42.2302 3.49042L38.6098 1.78957L33.0098 13.7096L36.6302 15.4104ZM40.42 4.64H51.62V0.639997H40.42V4.64ZM49.7022 2.07259L45.7022 15.5926L49.5378 16.7274L53.5378 3.2074L49.7022 2.07259Z" fill="url(#paint0_linear)"/>
<defs>
<linearGradient id="paint0_linear" x1="-0.723404" y1="15.25" x2="48.5719" y2="20.7057" gradientUnits="userSpaceOnUse">
<stop stop-color="#EAB25E"/>
<stop offset="0.509554" stop-color="#F4E2C7"/>
<stop offset="1" stop-color="#EAB25E"/>
</linearGradient>
</defs>
</svg>
